<?xml version="1.0" encoding="utf-8"?>
<!-- Generator: Adobe Illustrator 26.0.3, SVG Export Plug-In . SVG Version: 6.00 Build 0)  -->
<svg version="1.0" id="katman_1" xmlns="http://www.w3.org/2000/svg" xmlns:xlink="http://www.w3.org/1999/xlink" x="0px" y="0px"
	 viewBox="0 0 43.8 30.9" style="enable-background:new 0 0 43.8 30.9;" xml:space="preserve">
<style type="text/css">
	.st0{fill:url(#SVGID_1_);}
	.st1{fill:none;stroke:#182338;}
	.st2{fill-rule:evenodd;clip-rule:evenodd;fill:#FFFFFF;}
</style>
<linearGradient id="SVGID_1_" gradientUnits="userSpaceOnUse" x1="12.5339" y1="31.2383" x2="31.2439" y2="3.6506" gradientTransform="matrix(1 0 0 -1 0 32.8889)">
	<stop  offset="0" style="stop-color:#168EDA"/>
	<stop  offset="1" style="stop-color:#69E1FC"/>
</linearGradient>
<path class="st0" d="M21.9,27.4c6.6,0,12-5.4,12-12c0-6.6-5.4-12-12-12c-6.6,0-12,5.4-12,12C9.9,22.1,15.3,27.4,21.9,27.4z"/>
<path class="st1" d="M21.9,27.4c6.6,0,12-5.4,12-12c0-6.6-5.4-12-12-12c-6.6,0-12,5.4-12,12C9.9,22.1,15.3,27.4,21.9,27.4z"/>
<path class="st2" d="M26.4,7.9h-7.5v16.5l3.8-1.3v-4.7h2.2l0.8-3.8h-3v-3h3L26.4,7.9z"/>
</svg>
